<?xml version="1.0" standalone="no"?>
<!DOCTYPE svg PUBLIC "-//W3C//DTD SVG 20010904//EN"
 "http://www.w3.org/TR/2001/REC-SVG-20010904/DTD/svg10.dtd">
<svg version="1.0" xmlns="http://www.w3.org/2000/svg"
 width="300.000000pt" height="300.000000pt" viewBox="0 0 300.000000 300.000000"
 preserveAspectRatio="xMidYMid meet">
<metadata>
Created by potrace 1.14, written by Peter Selinger 2001-2017
</metadata>
<g transform="translate(0.000000,300.000000) scale(0.100000,-0.100000)"
fill="#000000" stroke="none">
<path d="M2168 2815 c145 -129 214 -294 215 -515 1 -196 -51 -329 -181 -457
-117 -117 -299 -194 -527 -224 -112 -14 -378 -6 -460 15 l-60 15 -29 -27 c-74
-70 -74 -177 1 -228 26 -18 58 -19 513 -24 421 -5 495 -8 560 -24 220 -53 352
-176 406 -377 25 -98 23 -291 -5 -398 -12 -46 -29 -98 -38 -115 l-16 -31 23
20 c36 32 139 164 188 240 94 145 173 342 209 522 27 135 25 453 -5 590 -97
447 -395 840 -782 1033 l-65 32 53 -47z"/>
<path d="M764 2804 c-375 -212 -642 -580 -736 -1018 -29 -134 -31 -423 -5
-564 50 -262 166 -506 340 -713 l62 -74 8 64 c20 165 155 287 386 350 73 20
97 31 70 31 -29 0 -140 60 -182 99 -51 47 -92 124 -108 202 -30 150 75 333
280 490 l69 52 -59 39 c-80 54 -177 162 -217 242 -129 260 -84 581 109 779 37
37 66 67 65 67 0 0 -37 -21 -82 -46z"/>
<path d="M1369 2767 c-53 -28 -91 -86 -116 -177 -15 -52 -18 -104 -18 -265 0
-254 19 -338 92 -407 40 -38 74 -48 166 -48 205 1 270 112 270 455 -1 222 -31
344 -103 411 -41 40 -82 52 -171 53 -61 1 -84 -4 -120 -22z"/>
<path d="M1165 741 c-82 -23 -145 -79 -164 -148 -72 -257 187 -403 643 -364
256 22 375 83 412 210 37 124 -15 230 -141 287 -36 16 -76 19 -380 20 -187 2
-353 -1 -370 -5z"/>
</g>
</svg>
